<svg xmlns="http://www.w3.org/2000/svg" viewBox="0 0 242.21 42.34">
  <title>
    monocle_wordmark
  </title>
  <g data-name="word mark">
    <path d="M6.39 7.81A12 12 0 0 0 6.11 4.9a3.29 3.29 0 0 0-.93-1.64 3.56 3.56 0 0 0-1.71-.81A22.16 22.16 0 0 0 .81 2.11a.67.67 0 0 1-.59-.34A1.3 1.3 0 0 1 0 1.05 1.16 1.16 0 0 1 .22.37.68.68 0 0 1 .81.06H2.48l2.6 0L8 .16q1.52 0 2.76.12a19.94 19.94 0 0 1 2.08.25c.56.1.88.24 1 .4L26.41 30.5c.08.12.16.19.25.19A.37.37 0 0 0 27 30.5L39.37.93Q39.43.68 41 .53T44.49.28q2-.09 4.09-.16T51.89.06a.54.54 0 0 1 .53.31 1.52 1.52 0 0 1 .15.68 1.3 1.3 0 0 1-.19.68.73.73 0 0 1-.5.37q-2.11.37-3.29.68a2.86 2.86 0 0 0-1.74 1.15 5.16 5.16 0 0 0-.68 2.45Q46.07 8 46.07 11V33.85A15.91 15.91 0 0 0 46.31 37a3.34 3.34 0 0 0 .9 1.77 3.89 3.89 0 0 0 1.83.9 23.93 23.93 0 0 0 3 .47.85.85 0 0 1 .59.4 1.31 1.31 0 0 1 .22.71 1.17 1.17 0 0 1-.22.68.74.74 0 0 1-.65.31A43.75 43.75 0 0 1 47.28 42a41.45 41.45 0 0 0-4.5-.25q-2.36 0-4.87.25t-4.56.25A.61.61 0 0 1 32.8 42a1.3 1.3 0 0 1-.19-.68 1.47 1.47 0 0 1 .19-.71.75.75 0 0 1 .56-.4 22.88 22.88 0 0 0 3.07-.47 3.88 3.88 0 0 0 1.8-.9A3.18 3.18 0 0 0 39.09 37a18.2 18.2 0 0 0 .22-3.19v-23q0-.43-.5-.4a.62.62 0 0 0-.62.4l-8.93 21q-.93 2.17-1.83 4.74t-1.77 5.18a.48.48 0 0 1-.34.28 1.91 1.91 0 0 1-1.18 0 .48.48 0 0 1-.34-.28L10.17 10.54a.62.62 0 0 0-.53-.37q-.4-.06-.4.43V33.67a12.64 12.64 0 0 0 .37 3.47A3.86 3.86 0 0 0 10.7 39a3.79 3.79 0 0 0 1.77.84q1.05.22 2.48.4a.65.65 0 0 1 .46.37 1.58 1.58 0 0 1 0 1.36.54.54 0 0 1-.53.31 20.38 20.38 0 0 1-3-.25A26.44 26.44 0 0 0 8 41.79 31.56 31.56 0 0 0 3.81 42a23.67 23.67 0 0 1-3.07.25A.56.56 0 0 1 .25 42 1.56 1.56 0 0 1 0 41.29a1.11 1.11 0 0 1 .15-.68.77.77 0 0 1 .56-.37q1.61-.19 2.7-.4A3.42 3.42 0 0 0 5.18 39a3.59 3.59 0 0 0 .93-1.86 16.72 16.72 0 0 0 .28-3.47zM94.06 16.39a2.9 2.9 0 0 0-.82-2.14 4.67 4.67 0 0 0-2.86-1 .32.32 0 0 1-.3-.22 1.1 1.1 0 0 1-.1-.46 1 1 0 0 1 .1-.44.35.35 0 0 1 .34-.2h1.52q1 0 2.12.06t2 .18a1.91 1.91 0 0 1 1 .32l16.12 19.16q.48.52.48-.2V20.07q0-1 0-1.9t-.1-1.78a5.61 5.61 0 0 0-.22-1.32 5.09 5.09 0 0 0-.4-.94 1.35 1.35 0 0 0-.54-.52 2.4 2.4 0 0 0-.84-.24l-1.22-.14A.32.32 0 0 1 110 13a1.1 1.1 0 0 1-.1-.46 1.17 1.17 0 0 1 .08-.44.31.31 0 0 1 .32-.2 19 19 0 0 1 2.06.12 20.44 20.44 0 0 0 2.22.12 17.61 17.61 0 0 0 2.06-.12 19.81 19.81 0 0 1 2.3-.12.39.39 0 0 1 .36.2.84.84 0 0 1 .12.44 1 1 0 0 1-.12.46.39.39 0 0 1-.36.22l-1.14.12a1.91 1.91 0 0 0-.72.2 1.58 1.58 0 0 0-.54.5 5.38 5.38 0 0 0-.52 1 5.59 5.59 0 0 0-.32 1.32q-.12.84-.18 1.8t-.06 1.92v19c0 .08-.07.15-.22.2a1.91 1.91 0 0 1-.52.1 2.81 2.81 0 0 1-.58 0 .51.51 0 0 1-.36-.16l-17.2-20.4q-.32-.36-.48-.34t-.16.54V33.59a8.85 8.85 0 0 0 .22 2.24A2.25 2.25 0 0 0 96.84 37a2.56 2.56 0 0 0 1.14.52q.68.14 1.6.26a.5.5 0 0 1 .36.24.72.72 0 0 1 .1.44 1 1 0 0 1-.14.44.39.39 0 0 1-.36.2A14.92 14.92 0 0 1 97.6 39a19.4 19.4 0 0 0-2.5-.14 23.16 23.16 0 0 0-2.7.14 17.33 17.33 0 0 1-2 .14.36.36 0 0 1-.32-.2 1 1 0 0 1-.14-.44.72.72 0 0 1 .1-.44.49.49 0 0 1 .36-.24q1-.12 1.74-.26A2.31 2.31 0 0 0 93.28 37a2.2 2.2 0 0 0 .6-1.18 10.75 10.75 0 0 0 .18-2.24zM135.42 39.31q-6.28 0-9.84-3.56T122 25.11a15.26 15.26 0 0 1 1-5.6 13.09 13.09 0 0 1 2.78-4.4 12.42 12.42 0 0 1 4.26-2.86 15.19 15.19 0 0 1 10.84 0A12.12 12.12 0 0 1 145.1 15a12.62 12.62 0 0 1 2.74 4.34 15.61 15.61 0 0 1 1 5.66 16.5 16.5 0 0 1-1.06 6.14 13.08 13.08 0 0 1-2.88 4.48 12.11 12.11 0 0 1-4.26 2.76A14.35 14.35 0 0 1 135.42 39.31zm.16-1.68a5.92 5.92 0 0 0 3.46-1 9 9 0 0 0 2.54-2.74 13.65 13.65 0 0 0 1.58-3.92 19.46 19.46 0 0 0 .54-4.62 24.68 24.68 0 0 0-.42-4.56 13.25 13.25 0 0 0-1.38-4 7.86 7.86 0 0 0-2.56-2.8 6.94 6.94 0 0 0-3.92-1.06A6.46 6.46 0 0 0 131.68 14a8.46 8.46 0 0 0-2.58 2.82 13.7 13.7 0 0 0-1.48 4 21.21 21.21 0 0 0-.48 4.5 26.31 26.31 0 0 0 .4 4.64 12.36 12.36 0 0 0 1.36 3.94 7.71 7.71 0 0 0 2.58 2.74A7.45 7.45 0 0 0 135.58 37.63zM166.3 11.23a11.92 11.92 0 0 1 3.32.44 18.91 18.91 0 0 1 3 1.16l.82.38a1.58 1.58 0 0 0 .66.18q.64 0 .84-.76a.37.37 0 0 1 .26-.24 1 1 0 0 1 .44-.06 1.08 1.08 0 0 1 .38.1.2.2 0 0 1 .12.24 8.46 8.46 0 0 0-.22 1.32q-.06.68-.06 1.4a15.71 15.71 0 0 0 .16 2.24q.16 1.12.32 2.32a.29.29 0 0 1-.18.26 1.06 1.06 0 0 1-.44.12 1.25 1.25 0 0 1-.5-.06.37.37 0 0 1-.28-.28 9.62 9.62 0 0 0-3.24-5.3 9.07 9.07 0 0 0-5.64-1.7 7.84 7.84 0 0 0-4.36 1.12A8.4 8.4 0 0 0 159 17a12.42 12.42 0 0 0-1.42 3.92 22.73 22.73 0 0 0-.4 4.18 21.3 21.3 0 0 0 .48 4.48 13.15 13.15 0 0 0 1.56 4A9 9 0 0 0 162 36.57a7.53 7.53 0 0 0 4.22 1.14 15.8 15.8 0 0 0 3.44-.34 5.64 5.64 0 0 0 2.56-1.26 8.69 8.69 0 0 0 2-2.78 13.52 13.52 0 0 0 1.08-3.66.41.41 0 0 1 .26-.36.77.77 0 0 1 .46 0 1.15 1.15 0 0 1 .44.22c.13.11.19.21.16.32q-.12.8-.16 1.58t0 1.58q0 1.36.1 2.78t.18 3a.42.42 0 0 1-.16.36.74.74 0 0 1-.38.14.77.77 0 0 1-.42-.08.41.41 0 0 1-.24-.3 2.41 2.41 0 0 0-.28-.7 1.75 1.75 0 0 0-.52-.56 1.31 1.31 0 0 0-.76-.22 2 2 0 0 0-.92.28 17.83 17.83 0 0 1-1.7.82 11 11 0 0 1-1.66.54 12.24 12.24 0 0 1-1.76.28q-.92.08-2 .08-7.08 0-10.5-3.54T152 25.71a16.64 16.64 0 0 1 1.08-6.22 12.87 12.87 0 0 1 3-4.54 12.46 12.46 0 0 1 4.52-2.78A16.77 16.77 0 0 1 166.3 11.23zM184.19 14.9a15.8 15.8 0 0 0-.16-2.44 3.86 3.86 0 0 0-.62-1.66 2.9 2.9 0 0 0-1.31-1 7.52 7.52 0 0 0-2.28-.44.44.44 0 0 1-.41-.25 1.09 1.09 0 0 1-.14-.53 1 1 0 0 1 .14-.51.45.45 0 0 1 .41-.23q1.47 0 3.36.14t3.54.14q1 0 1.82 0L190.19 8l1.63-.09q.83 0 1.79 0a.4.4 0 0 1 .39.23.94.94 0 0 1 .09.51 1.33 1.33 0 0 1-.16.53.41.41 0 0 1-.37.25 9.13 9.13 0 0 0-2.3.39 2.68 2.68 0 0 0-1.33.92 3.51 3.51 0 0 0-.6 1.63 19.73 19.73 0 0 0-.14 2.58v16a18.31 18.31 0 0 0 .14 2.46 4.78 4.78 0 0 0 .51 1.66 2.62 2.62 0 0 0 1 1 7.26 7.26 0 0 0 1.61.64 11.72 11.72 0 0 0 1.45.21q.8.07 1.68.07 1.1 0 2.07-.09a6.29 6.29 0 0 0 1.47-.28 10.41 10.41 0 0 0 1.59-.69 3.6 3.6 0 0 0 1.13-1 5.09 5.09 0 0 0 .76-1.5 12.68 12.68 0 0 0 .48-2.28.44.44 0 0 1 .32-.37 1.89 1.89 0 0 1 .6-.09 1.18 1.18 0 0 1 .57.14.33.33 0 0 1 .21.37q-.23 1.93-.41 3.61a25.32 25.32 0 0 0-.14 3.43.78.78 0 0 1-.18.39q-.18.25-.87.25h-16.7q-1.79 0-3.45.12l-3.27.21a.55.55 0 0 1-.48-.23.86.86 0 0 1-.16-.51 1 1 0 0 1 .16-.53.65.65 0 0 1 .48-.3 23.29 23.29 0 0 0 2.3-.39 2.86 2.86 0 0 0 1.33-.64 2.31 2.31 0 0 0 .62-1.29 13.45 13.45 0 0 0 .16-2.37V14.9zM238.29.25a3.72 3.72 0 0 1 1 .12q.47.13.34 1a8.7 8.7 0 0 0-.12 1.55V4.65q0 2.79.19 5.21a.46.46 0 0 1-.28.4 1.59 1.59 0 0 1-.65.19 1.64 1.64 0 0 1-.71-.09.59.59 0 0 1-.4-.5 31.8 31.8 0 0 0-.87-3.78A4.7 4.7 0 0 0 235.53 4a3.81 3.81 0 0 0-2.11-.9 33.33 33.33 0 0 0-3.5-.25H226.2q-1.61 0-2.57.06a2.88 2.88 0 0 0-1.52.46 2 2 0 0 0-.74 1.27 12.17 12.17 0 0 0-.19 2.42V17.92c0 .58.1.94.31 1.08a1.07 1.07 0 0 0 .62.22 31.71 31.71 0 0 0 4.5-.25 5.33 5.33 0 0 0 2.48-.9 3.11 3.11 0 0 0 1.12-1.71 19.42 19.42 0 0 0 .46-2.73.76.76 0 0 1 .37-.56 1.34 1.34 0 0 1 1.36 0 .61.61 0 0 1 .31.56q0 1-.06 1.77T232.53 17q-.06.78-.12 1.61t-.06 2a27.94 27.94 0 0 0 .19 3.38 31 31 0 0 1 .19 3.69.5.5 0 0 1-.31.46 1.26 1.26 0 0 1-.68.12A1.84 1.84 0 0 1 231 28a.67.67 0 0 1-.37-.53 21.67 21.67 0 0 0-.46-2.91 2.84 2.84 0 0 0-1.12-1.71A5.64 5.64 0 0 0 226.6 22a36.35 36.35 0 0 0-4.5-.22 1.08 1.08 0 0 0-.62.22 1 1 0 0 0-.31.9v8.12a17.55 17.55 0 0 0 .28 3.38 6.9 6.9 0 0 0 .84 2.29 4.5 4.5 0 0 0 1.36 1.43 5.73 5.73 0 0 0 1.92.77 15.8 15.8 0 0 0 2 .28q1.08.09 2.26.09 1.49 0 2.79-.12a8.48 8.48 0 0 0 2-.37 14 14 0 0 0 2.14-.93 4.87 4.87 0 0 0 1.52-1.3 6.86 6.86 0 0 0 1-2 17.09 17.09 0 0 0 .65-3.07.6.6 0 0 1 .43-.5 2.55 2.55 0 0 1 .81-.12 1.59 1.59 0 0 1 .78.19.45.45 0 0 1 .28.5q-.31 2.6-.56 4.87a34.06 34.06 0 0 0-.19 4.62 1 1 0 0 1-.25.53c-.17.23-.56.34-1.18.34H217.52q-2.36 0-4.62.12t-4.06.25a.94.94 0 0 1-.74-.28 1.29 1.29 0 0 1-.31-.68 1 1 0 0 1 .19-.74 1.09 1.09 0 0 1 .81-.4 13.94 13.94 0 0 0 2.54-.53 4.45 4.45 0 0 0 1.74-1 4 4 0 0 0 1-1.64 8 8 0 0 0 .34-2.54V10.6q0-1.36-.09-2.67a12.31 12.31 0 0 0-.4-2.42 5.25 5.25 0 0 0-1-1.92 3.36 3.36 0 0 0-1.77-1.12q-.68-.19-1.43-.31T208.35 2a.61.61 0 0 1-.56-.31A1.3 1.3 0 0 1 207.6 1a1.3 1.3 0 0 1 .19-.68.61.61 0 0 1 .56-.31q2.11 0 3.78.12T216 .25zM203.1 42.34H58.76a1 1 0 0 1 0-2H203.1a1 1 0 0 1 0 2zM175.1 9.48H90.76a1 1 0 0 1 0-2H175.1a1 1 0 1 1 0 2z"/>
    <path d="M68.79,2.28A17.31,17.31,0,1,1,51.48,19.59,17.33,17.33,0,0,1,68.79,2.28m0-2A19.31,19.31,0,1,0,88.09,19.59,19.31,19.31,0,0,0,68.79.28Z"/>
    <path d="M68.79,5.62a14,14,0,1,1-14,14,14,14,0,0,1,14-14m0-2a16,16,0,1,0,16,16,16,16,0,0,0-16-16Z"/>
  </g>
</svg>
