<svg xmlns="http://www.w3.org/2000/svg" width="1022" height="179" viewBox="0 0 1022 179">
  <path d="M740.651193 42.9405761L385.285267 42.9405761C382.957944 42.9405761 381.071276 41.0539078 381.071276 38.7265844 381.071276 36.399261 382.957944 34.5125926 385.285267 34.5125926L740.651193 34.5125926C742.978517 34.5125926 744.865185 36.399261 744.865185 38.7265844 744.865185 41.0539078 742.978517 42.9405761 740.651193 42.9405761zM29.708642 35.9032099C29.8165738 31.7828263 29.4203282 27.6647022 28.5287243 23.6404938 27.9136651 21.0540474 26.5679141 18.6989832 24.6518519 16.8559671 22.6017529 15.0890079 20.1118258 13.9095688 17.4459259 13.4426337 13.7279684 12.7375132 9.97058678 12.2590451 6.1945679 12.0098765 5.16680601 12.0204382 4.2144963 11.4716495 3.70831276 10.5771193 3.11467896 9.69129271 2.79248039 8.65147006 2.78123457 7.58518519 2.78097367 6.55624762 3.10540334 5.55346501 3.70831276 4.71967078 4.25222585 3.88009496 5.19460632 3.38494589 6.1945679 3.41333333L13.2740741 3.41333333 24.2304527 3.41333333 36.6617284 3.66617284C40.9319067 3.66617284 44.8087791 3.83473251 48.2923457 4.17185185 51.2304883 4.36918684 54.1562262 4.72083803 57.0574486 5.22534979 59.417284 5.64674897 60.7657613 6.23670782 61.2714403 6.9109465L114.114897 131.518683C114.452016 132.024362 114.789136 132.319342 115.168395 132.319342 115.713986 132.29957 116.209494 131.995872 116.474733 131.518683L168.559671 6.9109465C168.72823 6.20861454 170.947599 5.64674897 175.217778 5.22534979 179.487956 4.80395062 184.502606 4.46683128 190.261728 4.21399177 195.880384 3.96115226 201.62546 3.73640604 207.496955 3.53975309 213.36845 3.34310014 218.031934 3.2588203 221.487407 3.28691358 222.431094 3.21556677 223.320429 3.73574364 223.720823 4.59325103 224.150425 5.48663985 224.366802 6.46754968 224.352922 7.45876543 224.355495 8.46950914 224.078388 9.46126069 223.552263 10.3242798 223.117569 11.1321922 222.344961 11.7039224 221.445267 11.8834568 215.517586 12.9229081 210.896241 13.8780796 207.581235 14.7489712 204.614244 15.3837725 201.995858 17.1143153 200.248889 19.5950617 198.447506 22.7435983 197.46243 26.2927713 197.383374 29.9193416 197.018162 34.4423594 196.849602 40.8897668 196.877695 49.2615638L196.877695 145.635556C196.817911 150.144712 197.213219 154.648396 198.057613 159.078189 198.536432 161.891433 199.859096 164.492672 201.850206 166.536955 204.037725 168.46445 206.699741 169.773638 209.561811 170.329547 213.729623 171.25671 217.952114 171.918234 222.203786 172.310123 223.239478 172.480569 224.14829 173.096713 224.690041 173.99572 225.281461 174.882602 225.603451 175.921751 225.617119 176.987654 225.614535 178.016141 225.290381 179.018073 224.690041 179.853169 224.064757 180.733472 223.028569 181.227654 221.950947 181.159506 215.278681 181.170046 208.610763 180.818362 201.976626 180.106008 195.679421 179.411201 189.349078 179.059515 183.013663 179.05251 176.383649 179.05251 169.542936 179.403676 162.491523 180.106008 155.44011 180.80834 149.034842 181.173553 143.27572 181.201646 142.305477 181.247016 141.392515 180.741627 140.915885 179.895309 140.38976 179.032289 140.112653 178.040538 140.115226 177.029794 140.124463 175.980776 140.39996 174.951286 140.915885 174.03786 141.383081 173.126965 142.26254 172.498781 143.27572 172.352263 147.62792 171.985852 151.950194 171.324136 156.212675 170.371687 159.030625 169.796613 161.64703 168.48841 163.79786 166.579095 165.779515 164.544212 167.063339 161.932294 167.464033 159.120329 168.225767 154.666456 168.592406 150.153979 168.559671 145.635556L168.559671 48.7137449C168.559671 47.5057339 167.857339 46.9438683 166.452675 47.0281481 165.305851 46.9542661 164.245404 47.638426 163.84 48.7137449L126.209053 137.207572C123.540192 143.36 120.941564 150.0462 118.413169 157.266173 115.884774 164.486145 113.412565 171.762305 110.996543 179.09465 110.738247 179.696795 110.204286 180.136528 109.563786 180.274568 107.947829 180.799405 106.207233 180.799405 104.591276 180.274568 103.950776 180.136528 103.416815 179.696795 103.158519 179.09465L45.6796708 47.4074074C45.286436 46.5100253 44.4241849 45.9080764 43.4462551 45.8482305 42.322524 45.6796708 41.7606584 46.2836763 41.7606584 47.6602469L41.7606584 144.834897C41.6018121 149.757726 42.1265373 154.678797 43.3198354 159.457449 44.0636337 162.448543 45.6419488 165.166752 47.8709465 167.295473 50.0039833 169.108729 52.576184 170.329434 55.3297119 170.835226 58.2795062 171.453278 61.7630727 172.015144 65.7804115 172.520823 66.638915 172.700235 67.3595881 173.279907 67.7188477 174.08 68.5830885 175.892597 68.5830885 177.998432 67.7188477 179.811029 67.3184533 180.668536 66.4291186 181.188713 65.4854321 181.117366 61.2512313 181.078338 57.0257148 180.726211 52.8434568 180.063868 47.4266014 179.311912 41.9617337 178.959795 36.4931687 179.01037 30.5907698 178.969328 24.6921856 179.321272 18.8365432 180.063868 14.5674419 180.721936 10.2601018 181.101996 5.9417284 181.201646 5.04881137 181.199893 4.23335523 180.69431 3.83473251 179.895309 3.31667315 179.008524 3.01359407 178.012692 2.94979424 176.987654 2.84767463 175.989409 3.06928308 174.984784 3.581893 174.12214 4.08867889 173.268885 4.9580707 172.694466 5.9417284 172.562963 10.4647462 172.029191 14.2573388 171.467325 17.3195062 170.877366 20.0530459 170.426734 22.5987698 169.197764 24.6518519 167.337613 26.7028614 165.168796 28.0664164 162.441686 28.5708642 159.499588 29.471909 154.67974 29.8673578 149.778999 29.7507819 144.877037L29.708642 35.9032099z"/>
  <path d="M292.661728,12.6419753 C322.172565,12.6249318 348.786261,30.3909654 360.087444,57.6521655 C371.388626,84.9133656 365.150509,116.298181 344.283193,137.165497 C323.415877,158.032813 292.031061,164.270931 264.769861,152.969748 C237.508661,141.668565 219.742627,115.054869 219.759671,85.5440329 C219.82926,45.3101981 252.427894,12.7115641 292.661728,12.6419753 L292.661728,12.6419753 Z M292.661728,4.21399177 C259.74592,4.21399618 230.072007,24.0442542 217.479613,54.4561282 C204.887218,84.8680021 211.856804,119.870932 235.137823,143.139895 C258.418842,166.408857 293.425377,173.36031 323.830724,160.752164 C354.236071,148.144018 374.050955,118.459837 374.033909,85.5440329 C374.010645,40.6198758 337.585892,4.21398575 292.661728,4.21399177 Z"/>
  <path d="M292.661728 26.6745679C325.244256 26.6745679 351.657613 53.0879252 351.657613 85.6704527 351.657613 118.25298 325.244256 144.666337 292.661728 144.666337 260.079201 144.666337 233.665844 118.25298 233.665844 85.6704527 233.665844 53.0879252 260.079201 26.6745679 292.661728 26.6745679L292.661728 26.6745679zM292.661728 18.2465844C255.424554 18.2465844 225.23786 48.4332784 225.23786 85.6704527 225.23786 122.907627 255.424554 153.094321 292.661728 153.094321 329.898903 153.094321 360.085597 122.907627 360.085597 85.6704527 360.085597 48.4332784 329.898903 18.2465844 292.661728 18.2465844zM399.1493 72.0592593C399.238102 68.764158 397.992 65.5729212 395.693827 63.2098765 392.256446 60.5048557 388.015829 59.0221224 383.641811 58.9958848 383.065613 58.9887145 382.557644 58.6162036 382.377613 58.0688066 382.098914 57.4606398 381.955156 56.7993539 381.956214 56.1303704 381.953586 55.4882852 382.097721 54.8540901 382.377613 54.276214 382.636334 53.7272779 383.204878 53.3928401 383.81037 53.4334156L390.215638 53.4334156C393.024966 53.4334156 396.002853 53.5176955 399.1493 53.6862551 402.295748 53.8548148 405.105075 54.1076543 407.577284 54.4447737 409.080338 54.491778 410.540165 54.9589225 411.791276 55.793251L479.720823 136.533333C481.0693 137.994184 481.743539 137.713251 481.743539 135.690535L481.743539 87.566749C481.743539 84.7574211 481.743539 82.0885597 481.743539 79.5601646 481.743539 77.0317695 481.603073 74.5314678 481.32214 72.0592593 481.236158 70.1747547 480.924918 68.3073157 480.395062 66.4967901 479.967454 65.1232209 479.402745 63.7961548 478.709465 62.5356379 478.17303 61.605031 477.38409 60.8453103 476.433909 60.3443621 475.325802 59.7935251 474.126011 59.4507277 472.894156 59.3330041L467.753086 58.7430453C467.176889 58.735875 466.66892 58.3633641 466.488889 57.8159671 466.21019 57.2078003 466.066432 56.5465144 466.06749 55.8775309 466.059599 55.2435517 466.174062 54.6140013 466.404609 54.0233745 466.611651 53.4697076 467.164682 53.124063 467.753086 53.1805761 470.653718 53.1917654 473.551598 53.360574 476.433909 53.6862551 479.54078 54.0244059 482.663753 54.1932152 485.788971 54.1919342 488.689976 54.1931977 491.588558 54.0243482 494.469794 53.6862551 497.687981 53.3298756 500.924175 53.1610306 504.161975 53.1805761 504.786852 53.1498556 505.374972 53.4765894 505.679012 54.0233745 506.01534 54.582965 506.190351 55.2246711 506.184691 55.8775309 506.174402 56.5549308 506.000941 57.2198645 505.679012 57.8159671 505.39856 58.3954493 504.805586 58.757822 504.161975 58.7430453L499.358025 59.2487243C498.30104 59.327147 497.269952 59.6135603 496.323951 60.0915226 495.410159 60.6049494 494.630493 61.3268627 494.048395 62.1985185 493.172439 63.5225841 492.437984 64.9349971 491.857119 66.4125103 491.183203 68.2049633 490.730369 70.0729046 490.508642 71.9749794 490.171523 74.3348148 489.918683 76.8632099 489.750123 79.5601646 489.581564 82.2571193 489.497284 84.9540741 489.497284 87.6510288L489.497284 167.716872C489.497284 168.053992 489.202305 168.348971 488.570206 168.559671 487.862889 168.801198 487.125378 168.943028 486.37893 168.98107 485.566406 169.065375 484.747339 169.065375 483.934815 168.98107 483.35924 168.968587 482.812738 168.725698 482.417778 168.306831L409.937119 82.3413992C409.038134 81.3300412 408.363896 80.8524554 407.914403 80.908642 407.464911 80.9648285 407.240165 81.7233471 407.240165 83.1841975L407.240165 144.539918C407.14619 147.712998 407.457735 150.885092 408.167243 153.979259 408.585796 155.892984 409.586838 157.630086 411.032757 158.95177 412.427838 160.068852 414.078599 160.821831 415.836708 161.143045 417.747051 161.536351 419.994513 161.901564 422.579095 162.238683 423.212006 162.328232 423.770044 162.700258 424.096132 163.250041 424.431637 163.806976 424.579361 164.456959 424.517531 165.104198 424.468213 165.75981 424.266174 166.394787 423.927572 166.958354 423.623532 167.505139 423.035411 167.831873 422.410535 167.801152 419.675556 167.782523 416.944706 167.585451 414.235391 167.211193 410.740099 166.787888 407.221112 166.590825 403.700412 166.621235 399.899567 166.596163 396.100502 166.793152 392.322634 167.211193 389.527045 167.570322 386.713009 167.767305 383.89465 167.801152 383.322134 167.797185 382.800617 167.471237 382.546173 166.958354 382.20757 166.394787 382.005532 165.75981 381.956214 165.104198 381.894384 164.456959 382.042107 163.806976 382.377613 163.250041 382.699013 162.695832 383.259457 162.322203 383.89465 162.238683 386.703978 161.901564 389.148093 161.536351 391.226996 161.143045 392.969916 160.854433 394.601435 160.096942 395.946667 158.95177 397.27998 157.593151 398.162753 155.857032 398.475062 153.979259 399.056983 150.867953 399.311211 147.704224 399.23358 144.539918L399.1493 72.0592593zM573.44 168.559671C555.797421 168.559671 541.975528 163.559067 531.974321 153.55786 521.973114 143.556653 516.97251 128.611029 516.97251 108.720988 516.885642 100.660274 518.315139 92.655092 521.186502 85.1226337 523.811012 78.2202741 527.794709 71.9151432 532.901399 66.58107 538.005051 61.4490663 544.117658 57.4313905 550.853004 54.781893 565.561366 49.16395 581.824313 49.16395 596.532675 54.781893 603.187517 57.4044046 609.217288 61.3955383 614.23144 66.4967901 619.234844 71.5893644 623.161655 77.637226 625.777778 84.2798354 628.646634 91.9008697 630.075514 99.9883337 629.99177 108.131029 630.159559 116.961079 628.643591 125.742254 625.524938 134.004938 622.817032 141.063555 618.685979 147.489639 613.388642 152.883621 608.293589 157.985122 602.17534 161.949058 595.437037 164.514239 588.420024 167.218765 580.960105 168.590704 573.44 168.559671L573.44 168.559671zM574.114239 161.480165C579.294078 161.623877 584.39012 160.151032 588.69465 157.266173 593.03089 154.208486 596.677297 150.274961 599.398189 145.719835 602.461722 140.592622 604.708011 135.01955 606.056296 129.200988 607.590462 122.825759 608.354437 116.289532 608.331852 109.732346 608.338691 103.286069 607.746183 96.8531178 606.561975 90.5165432 605.539 84.6226483 603.575533 78.9314388 600.746667 73.6605761 598.168122 68.9056504 594.464293 64.854587 589.958848 61.8613992 585.021075 58.7587868 579.268482 57.2032387 573.44 57.3945679 567.843569 57.2549939 562.340185 58.8442063 557.679671 61.945679 553.196568 65.0255959 549.477633 69.0904781 546.807572 73.8291358 543.861467 79.0877574 541.75707 84.7753185 540.570864 90.6851029 539.222278 96.9158658 538.544181 103.273031 538.548148 109.648066 538.530922 116.202719 539.094997 122.745988 540.233745 129.200988 541.190416 135.01989 543.128308 140.634076 545.964774 145.804115 548.579386 150.49189 552.314698 154.458849 556.836872 157.350453 562.069449 160.391032 568.069332 161.854418 574.114239 161.564444L574.114239 161.480165zM703.736626 50.3150617C708.464128 50.2716461 713.174088 50.8958576 717.727078 52.1692181 722.07225 53.4366357 726.301536 55.0719599 730.369053 57.0574486L733.824527 58.6587654C734.685086 59.1116815 735.634414 59.3705891 736.605761 59.417284 738.403731 59.417284 739.583649 58.3497394 740.145514 56.2146502 740.315416 55.7134325 740.727965 55.3326176 741.241152 55.2032922 741.832443 54.9811133 742.466118 54.8947031 743.095309 54.9504527 743.650358 54.9918189 744.193112 55.1346488 744.696626 55.3718519 745.099875 55.5291091 745.318449 55.9662559 745.202305 56.3832099 744.746887 58.2099783 744.436892 60.069952 744.275226 61.945679 744.106667 63.8560219 744.022387 65.8225514 744.022387 67.8452675 744.021669 71.00377 744.246991 74.1582746 744.696626 77.2846091 745.146118 80.4310562 745.59561 83.6898765 746.045103 87.06107 746.031142 87.5441359 745.73382 87.9736011 745.286584 88.1567078 744.712545 88.4578058 744.07985 88.6303588 743.432428 88.6623868 742.720216 88.7219189 742.003339 88.6358936 741.325432 88.4095473 740.737049 88.2775022 740.27756 87.8180124 740.145514 87.2296296 738.189383 78.4799287 733.387834 70.6255425 726.492181 64.8954733 719.58756 59.9297755 711.223957 57.4088314 702.725267 57.7316872 696.271244 57.4750536 689.883555 59.1159277 684.352263 62.451358 679.577911 65.5384933 675.617429 69.7302448 672.805926 74.6719342 669.894748 79.8017009 667.871627 85.386657 666.822058 91.1907819 665.71789 96.9976893 665.153617 102.89434 665.136461 108.805267 665.141356 115.151976 665.819387 121.480266 667.159177 127.683951 668.412224 133.624803 670.633094 139.319342 673.733004 144.539918 676.695154 149.523632 680.76044 153.761909 685.616461 156.929053 690.93872 160.253544 697.12721 161.925316 703.399506 161.733004 708.269408 161.78703 713.130538 161.306569 717.895638 160.300247 721.88723 159.484254 725.602046 157.655868 728.683457 154.990617 732.242051 151.683361 735.107004 147.701076 737.11144 143.27572 739.334895 138.428878 740.866883 133.293881 741.662551 128.02107 741.698594 127.344262 742.127034 126.751037 742.758189 126.504033 743.389241 126.30652 744.065574 126.30652 744.696626 126.504033 745.374312 126.675702 746.006834 126.991963 746.550782 127.431111 747.098601 127.89465 747.35144 128.316049 747.225021 128.779588 746.887901 131.027051 746.663155 133.24642 746.550782 135.437695 746.438409 137.628971 746.438409 139.84834 746.550782 142.095802 746.550782 145.916488 746.691248 149.821454 746.972181 153.8107 747.253114 157.799945 747.505953 162.013937 747.7307 166.452675 747.771761 167.038933 747.519137 167.607337 747.056461 167.969712 746.587929 168.311436 746.033389 168.51574 745.455144 168.559671 744.84519 168.616625 744.231574 168.499746 743.685267 168.222551 743.159357 167.99495 742.780516 167.521398 742.673909 166.958354 742.437789 165.919278 742.039612 164.923835 741.493992 164.00856 740.946334 163.070123 740.19807 162.2643 739.302716 161.648724 738.356239 161.016996 737.237663 160.693198 736.100082 160.721646 734.731061 160.793786 733.400303 161.1988 732.22321 161.901564 729.897963 163.179059 727.506685 164.332499 725.059424 165.357037 722.791644 166.299666 720.452539 167.060579 718.064198 167.632593 715.623944 168.205591 713.145167 168.599942 710.647572 168.81251 708.06299 169.037257 705.253663 169.14963 702.219588 169.14963 682.329547 169.14963 667.580576 164.177119 657.972675 154.232099 648.364774 144.287078 643.560823 130.043786 643.560823 111.502222 643.391406 102.554847 644.93624 93.6577457 648.111934 85.2911934 650.91416 78.0858556 655.224486 71.5628956 660.753909 66.1596708 666.188165 60.9323421 672.684551 56.9367774 679.801152 54.4447737 687.48151 51.6971227 695.579589 50.299919 703.736626 50.3150617L703.736626 50.3150617zM778.956379 65.7804115C778.997582 62.3407604 778.772161 58.9030883 778.28214 55.4982716 777.965488 52.9954746 777.07103 50.600634 775.669465 48.5030453 774.27561 46.5940737 772.358055 45.1302916 770.149136 44.2890535 767.061817 43.1772831 763.82055 42.5517756 760.541235 42.4348971 759.807568 42.4566578 759.130125 42.0435831 758.813498 41.3813992 758.429796 40.6993406 758.226721 39.9305569 758.223539 39.1479835 758.223762 38.3916422 758.427541 37.6493013 758.813498 36.9988477 759.161467 36.3767214 759.828931 36.0022905 760.541235 36.0296296 764.670947 36.0296296 769.390617 36.2262826 774.700247 36.6195885 780.009877 37.0128944 784.982387 37.2095473 789.617778 37.2095473 792.427106 37.2095473 794.983594 37.2095473 797.287243 37.2095473L804.282469 36.8302881 811.151276 36.4510288C813.483018 36.4510288 815.997366 36.4510288 818.694321 36.4510288 819.389865 36.403131 820.043119 36.7883835 820.337778 37.4202469 820.662936 38.0869823 820.794343 38.8316242 820.717037 39.5693827 820.651441 40.352907 820.421718 41.1138624 820.042798 41.8027984 819.776666 42.4310111 819.165766 42.8437811 818.483621 42.8562963 815.195911 42.9874175 811.938601 43.539744 808.79144 44.4997531 806.568602 45.1841033 804.611261 46.5380537 803.186831 48.3766255 801.851836 50.2830581 800.985563 52.4776177 800.658436 54.781893 800.224442 58.3891426 800.027367 62.0209612 800.068477 65.6539918L800.068477 133.07786C800.032142 136.54266 800.229241 140.005973 800.658436 143.44428 800.941691 145.887685 801.670088 148.258545 802.807572 150.439506 803.799412 152.203884 805.257186 153.661658 807.021564 154.653498 809.167313 155.820073 811.445037 156.725504 813.806091 157.350453 815.822404 157.772577 817.863153 158.068134 819.916379 158.235391 822.163841 158.432044 824.523676 158.53037 826.995885 158.53037 830.086145 158.53037 832.9938 158.403951 835.718848 158.151111 837.823299 158.005702 839.902868 157.609594 841.913416 156.971193 844.223776 156.189915 846.464958 155.217327 848.613663 154.063539 850.480798 153.011035 852.103713 151.574826 853.375473 149.849547 854.786078 147.934681 855.868389 145.798542 856.578107 143.52856 857.545786 140.394791 858.222882 137.178583 858.600823 133.920658 858.693364 133.175931 859.225695 132.560423 859.9493 132.361481 860.766176 132.09973 861.619973 131.97166 862.477695 131.982222 863.315264 131.973431 864.141481 132.176362 864.879671 132.572181 865.515013 132.807024 865.888726 133.465471 865.764609 134.131358 865.118464 139.553361 864.542551 144.624198 864.036872 149.343868 863.513461 154.142971 863.316355 158.972064 863.446914 163.79786 863.352868 164.405872 863.090062 164.975284 862.688395 165.441317 862.182716 166.143649 860.960658 166.494815 859.022222 166.494815L788.64856 166.494815C783.619863 166.494815 778.773772 166.663374 774.110288 167.000494L760.330535 167.885432C759.534457 167.931841 758.770426 167.565743 758.307819 166.916214 757.860504 166.289636 757.624348 165.536887 757.63358 164.767078 757.643662 163.973989 757.877366 163.199847 758.307819 162.533663 758.75354 161.825401 759.49858 161.359752 760.330535 161.269465 763.586687 160.883894 766.821471 160.335387 770.022716 159.626008 772.094708 159.232877 774.027268 158.302924 775.627325 156.929053 777.051766 155.439337 777.966584 153.535927 778.24 151.493004 778.758853 148.190351 778.984478 144.848267 778.914239 141.505844L778.914239 65.7804115 778.956379 65.7804115zM1007.14403 4.21399177C1008.56513 4.19073937 1009.98278 4.36085786 1011.35802 4.71967078 1012.67841 5.0848834 1013.15599 6.48954733 1012.79078 8.93366255 1012.42764 11.0914386 1012.25841 13.2773928 1012.2851 15.4653498L1012.2851 22.5869959C1012.2851 30.4250206 1012.55199 37.7433196 1013.08576 44.541893 1013.04771 45.2833548 1012.58949 45.9379465 1011.90584 46.2274897 1011.0609 46.6879708 1010.12668 46.9610499 1009.16675 47.0281481 1008.15368 47.1235325 1007.13204 46.9940296 1006.17481 46.6488889 1005.24756 46.3390505 1004.58796 45.5145464 1004.48922 44.541893 1003.59242 39.1626098 1002.36809 33.8430871 1000.82305 28.6130041 999.91281 25.2983351 998.155572 22.2776286 995.724115 19.8479012 993.220262 17.7003005 990.115668 16.3760662 986.832593 16.0553086 981.938177 15.4454163 977.015033 15.0937631 972.083621 15.0018107L956.407572 15.0018107C951.884554 15.0018107 948.274568 15.0860905 945.577613 15.2546502 943.30305 15.2877308 941.083572 15.9594149 939.172346 17.1930864 937.275949 18.4262033 935.954853 20.3698847 935.506173 22.5869959 934.900093 25.9511045 934.631873 29.3673808 934.705514 32.784856L934.705514 78.5066667C934.705514 80.9507819 935.126914 82.4678189 936.011852 83.0577778 936.763776 83.6335072 937.677887 83.9578693 938.624527 83.984856 944.962501 84.0839037 951.29949 83.7318488 957.58749 82.931358 961.333835 82.5629107 964.927487 81.2587627 968.038189 79.1387654 970.378406 77.3371966 972.04151 74.7979935 972.75786 71.9328395 973.676867 68.1491056 974.324658 64.3046066 974.696296 60.428642 974.821704 59.4427123 975.397738 58.5708768 976.255473 58.0688066 978.023874 57.0273483 980.218102 57.0273483 981.986502 58.0688066 982.83282 58.5454366 983.33821 59.4583986 983.29284 60.428642 983.29284 63.2379698 983.20856 65.724225 983.04 67.8874074 982.87144 70.0505898 982.702881 72.2278189 982.534321 74.4190947 982.365761 76.6103704 982.197202 78.8718793 982.028642 81.2036214 981.860082 83.5353635 981.775802 86.3446914 981.775802 89.6316049 981.754549 94.3911881 982.021925 99.1476808 982.576461 103.874897 983.152278 109.037577 983.419639 114.230008 983.377119 119.424527 983.372873 120.275125 982.857588 121.039742 982.070782 121.362963 981.181334 121.795068 980.188892 121.970204 979.205267 121.868642 978.207367 121.789236 977.234284 121.517345 976.339753 121.067984 975.471537 120.640008 974.883086 119.797093 974.780576 118.834568 974.413362 114.707755 973.765721 110.610717 972.84214 106.571852 972.217843 103.667333 970.535555 101.09884 968.122469 99.3659259 964.95355 97.4270054 961.37423 96.2579532 957.67177 95.9525926 951.376032 95.2517618 945.042883 94.9421412 938.708807 95.0255144 937.762696 95.0553173 936.849421 95.3793826 936.096132 95.9525926 935.048335 96.9151813 934.557041 98.3415181 934.789794 99.7451852L934.789794 133.962798C934.722344 138.737521 935.117494 143.507553 935.969712 148.206091 936.567196 151.607457 937.765838 154.875185 939.509465 157.856132 940.950406 160.264103 942.907812 162.322258 945.240494 163.88214 947.718259 165.445633 950.459883 166.545139 953.331358 167.126914 956.11265 167.69954 958.927727 168.093651 961.759342 168.306831 964.793416 168.559671 967.967956 168.686091 971.282963 168.686091 975.468861 168.686091 979.387874 168.517531 983.04 168.180412 985.901708 168.000698 988.731384 167.477208 991.467984 166.621235 994.577779 165.568109 997.594234 164.25722 1000.48593 162.702222 1002.97704 161.338987 1005.15812 159.473589 1006.89119 157.224033 1008.74735 154.664083 1010.17092 151.816941 1011.10519 148.796049 1012.41304 144.576859 1013.32993 140.24629 1013.84428 135.859095 1013.97356 134.858032 1014.68586 134.029775 1015.6563 133.752099 1016.75941 133.400769 1017.91204 133.230008 1019.06963 133.24642 1020.21572 133.227759 1021.34743 133.503433 1022.35654 134.047078 1023.20401 134.375831 1023.69899 135.25972 1023.53646 136.154074 1022.66557 143.458326 1021.87896 150.29904 1021.17663 156.676214 1020.46904 163.140132 1020.20153 169.644664 1020.37597 176.144856 1020.25571 176.977825 1019.88878 177.755704 1019.32247 178.378272 1018.60609 179.34749 1016.96263 179.811029 1014.34996 179.811029L919.450864 179.811029C912.82085 179.811029 906.331303 179.979588 899.982222 180.316708 893.633141 180.653827 887.930206 181.004993 882.873416 181.370206 881.710998 181.45481 880.570311 181.023199 879.755062 180.190288 879.046417 179.384935 878.591894 178.387917 878.448724 177.324774 878.29237 176.220322 878.580294 175.098933 879.249383 174.20642 880.089815 173.177318 881.334697 172.562561 882.662716 172.520823 886.292239 172.110741 889.875605 171.363031 893.366255 170.287407 896.099359 169.459389 898.607245 168.018076 900.698601 166.073416 902.64374 164.146233 904.090105 161.774196 904.912593 159.162469 905.962236 155.694793 906.446027 152.080586 906.34535 148.45893L906.34535 47.6602469C906.34535 43.839561 906.21893 40.0891084 905.966091 36.4088889 905.745134 32.9619624 905.180466 29.5457213 904.280494 26.2110288 903.453158 23.2506122 902.017988 20.4950861 900.066502 18.1201646 898.146651 15.7923805 895.533372 14.1387804 892.607737 13.4004938 890.697394 12.8667215 888.688724 12.4312757 886.581728 12.0941564 884.474733 11.757037 882.52225 11.5041975 880.72428 11.3356379 879.754036 11.3810082 878.841075 10.8756186 878.364444 10.0293004 877.322986 8.26089997 877.322986 6.06667205 878.364444 4.2982716 878.841075 3.45195346 879.754036 2.94656378 880.72428 2.99193416 886.651962 2.99193416 891.961591 3.16049383 896.653169 3.49761317 901.344746 3.83473251 906.851029 4.07352538 913.172016 4.21399177L1007.14403 4.21399177zM858.642963 181.201646L250.437531 181.201646C248.110207 181.201646 246.223539 179.314978 246.223539 176.987654 246.223539 174.660331 248.110207 172.773663 250.437531 172.773663L858.642963 172.773663C860.970286 172.773663 862.856955 174.660331 862.856955 176.987654 862.856955 179.314978 860.970286 181.201646 858.642963 181.201646z"/>
</svg>
